<?xml version="1.0" encoding="UTF-8"?>
<svg xmlns="http://www.w3.org/2000/svg" viewBox="0 0 200 200">
  <path fill="#46c676" d="m158.88,65c1.38,0,2.5-1.12,2.5-2.5s-1.12-2.5-2.5-2.5h-12.35c1.07,5.74,1.17,14.28-4.66,21.89-8.03,10.5-5.28,14.84-1.47,20.85.26.42.53.84.8,1.27-.51.92-1.02,1.86-1.52,2.83-.53-.9-1.06-1.78-1.6-2.62-3.9-6.16-7.59-11.98,1.61-24,5.34-6.97,5.04-15.01,4.01-20.22h-19.82s-35,0-35,0c-1.38,0-2.5,1.12-2.5,2.5s1.12,2.5,2.5,2.5h0c2.9,0,5.26,2.35,5.26,5.25,0,.63-.11,1.24-.32,1.8h0s-13.56,37.25-13.56,37.25h0c-.17.48-.63.82-1.17.82s-1-.34-1.17-.82h0s-13.56-37.25-13.56-37.25h0c-.2-.56-.32-1.16-.32-1.8,0-2.9,2.35-5.26,5.26-5.26h0c1.38,0,2.5-1.12,2.5-2.5s-1.12-2.5-2.5-2.5h-11.25c6.64,10.61,5.1,17.59,3.49,24.88-.83,3.73-1.68,7.58-1.41,12.12.35,5.91,3.89,10.22,8.04,14.1-.02,1.22-.06,2.43-.1,3.62-5.11-4.53-10.23-9.79-10.68-17.56-.29-4.92.61-8.97,1.47-12.88,1.62-7.3,3.04-13.78-4.08-24.28h-20.47c-1.38,0-2.5,1.12-2.5,2.5s1.12,2.5,2.5,2.5h0c4.63,0,8.57,2.94,10.07,7.05h0s1.41,3.86,1.41,3.86c4.92.99,9.16,2.9,12.69,5.43-.18.9-.38,1.8-.58,2.73-.02.08-.04.17-.06.25-3.03-2.38-6.68-4.24-10.93-5.33l18.44,50.67h0c.15.42.24.88.24,1.36,0,2.2-1.78,3.98-3.98,3.98-1.38,0-2.5,1.12-2.5,2.5s1.12,2.5,2.5,2.5h16.17c1.73-3.23,2.57-6.14,2.5-8.75-.12-5-3.49-8.77-7.58-12.47.02-1.07.06-2.19.11-3.36,0-.07,0-.14,0-.21,5.09,4.44,10.04,9.14,10.21,15.97.07,2.74-.63,5.66-2.14,8.82h15.72c1.38,0,2.5-1.12,2.5-2.5s-1.12-2.5-2.5-2.5c-2.2,0-3.98-1.78-3.98-3.98,0-.48.08-.94.24-1.36h0s20.73-56.95,20.73-56.95c-6.98.74-11.61,2.52-14.04,5.39-3.27,3.86-2.21,9.51-1.17,14.97.9,4.75,1.75,9.24-.05,12.8-1.66,3.28-3.99,4.95-6.23,6.57-3.31,2.38-6.73,4.85-9.43,12.85-.49-1.09-1.09-2.12-1.78-3.11,2.87-7.11,6.42-9.68,9.61-11.97,2.16-1.55,4.03-2.89,5.39-5.58,1.38-2.72.62-6.77-.2-11.05-1.1-5.81-2.35-12.4,1.78-17.26,3.13-3.69,8.78-5.81,17.5-6.5,1.92-2.9,5.21-4.82,8.95-4.82h0c3.4,0,6.27,2.26,7.19,5.36,3.4.88,7.1,2.58,10.33,5.02-.37.82-.77,1.62-1.24,2.39-2.31-1.92-5.23-3.51-8.77-4.5v54.23c0,4.14-3.36,7.5-7.5,7.5-1.38,0-2.5,1.12-2.5,2.5s1.12,2.5,2.5,2.5h22.33c-15.91-14.09-9.2-26.3-3.75-36.21,2.4-4.35,4.66-8.47,4.77-12.18h0c.09-3.03-1.11-6.85-3.71-10.3.56-.83,1.07-1.68,1.52-2.56,3.06,3.44,5.08,7.79,4.93,12.94-.13,4.38-2.55,8.77-5.11,13.43-5.77,10.48-11.74,21.32,5.63,34.88h8.38c1.38,0,2.5-1.12,2.5-2.5s-1.12-2.5-2.5-2.5c-4.14,0-7.5-3.36-7.5-7.5v-55c0-4.14,3.36-7.5,7.5-7.5Zm-109.91-1.24c5.99,3.03,5.9-.45,9.57,6.38-5.86,1.01-6.88-.5-9.57-6.38Zm49.67,24.92c1.24-6.98,2.15-3.93,6.49-8.28-.66,5.88-1.1,7.48-6.49,8.28Zm-5.23,28.9c-2.73,4.25-3.68,5.3-8.1,3.87,3.59-4.87,3.13-2.19,8.1-3.87Zm-28.9-20.6c1.79,3.82,2.12,4.96-.85,7.45-1.85-4.71-.16-3.19.85-7.45Zm-.62,20.82c2.93,3.61,3.85,1.38,4.24,6.74-3.99-1.02-4.2-2.26-4.24-6.74Zm7.89-2.42c-.25,6.42-.45,11.48,3.05,15.36h.01c1.03,1.14,2.39,2.19,4.17,3.14-.17.85-.43,1.75-.79,2.7-2.35-1.18-4.12-2.52-5.45-3.98h.01s0-.01,0-.01c-4.24-4.71-4.02-10.54-3.75-17.31.16-4.1.32-8.35-.46-12.92-.68-3.95-2.24-7.85-4.51-11.29,0,0,0,0,0,0h-.01c-.67-.99-1.4-1.96-2.2-2.89.21-1.05.43-2.07.65-3.09.02-.08.03-.15.05-.23,1.42,1.45,2.68,3.02,3.77,4.66,0,.01.03.02.03.03,2.48,3.75,4.18,8.02,4.92,12.34.83,4.85.66,9.44.5,13.49Zm17.29-20.58c3.9,5.47,5.43,2.34,5.51,10.1-5.66-1.83-5.86-3.64-5.51-10.1Zm12.56-22.85c-.76-5.2.6-6.06,5.85-8.3-2.81,5.22.26,5.22-5.85,8.3Zm35.79-10.17c3.84,4.44,4.91,1.59,5.61,8.34-5.07-1.13-5.39-2.69-5.61-8.34Zm-4.28,43.4c2.84,4.16,4.04,1.84,3.97,7.66-4.22-1.46-4.34-2.82-3.97-7.66Zm4.89-9.12c.99-6.16,1.83-3.49,5.59-7.36-.5,5.18-.87,6.59-5.59,7.36Zm7.87,23.17c.32,5.45.16,6.98-4.61,8.54.03-6.55,1.34-3.91,4.61-8.54Z"/>
</svg>
